<svg width="48" height="48" viewBox="0 0 48 48" fill="none" xmlns="http://www.w3.org/2000/svg">
<path fill-rule="evenodd" clip-rule="evenodd" d="M14.9761 6.56285L20.9999 12.9546C21.7464 13.7473 21.7469 14.9893 21.0011 15.7825L18.0892 18.8796C19.9176 24.4696 24.0066 28.9416 29.1889 31.0563L29.7691 31.2815L32.5293 28.3457C33.3046 27.5211 34.597 27.4855 35.416 28.266L41.4398 34.6578C42.1863 35.4504 42.1869 36.6924 41.441 37.4857L39.943 39.0789C37.2071 41.9888 33.0406 42.8089 29.3812 41.1578C24.2085 38.824 20.0345 35.9713 16.8593 32.5999C13.6842 29.2285 10.9963 24.7953 8.79579 19.3002C7.30131 15.5682 7.94952 11.3377 10.4243 8.43076L10.7432 8.07442L12.0894 6.64255C12.8647 5.81798 14.1571 5.78229 14.9761 6.56285Z" stroke="#fcdeba" stroke-width="2.8125" stroke-linecap="round" stroke-linejoin="round"/>
</svg>
