<svg width="48" height="48" viewBox="0 0 48 48" fill="none" xmlns="http://www.w3.org/2000/svg">
<path fill-rule="evenodd" clip-rule="evenodd" d="M11.4063 18C11.4063 13.8202 12.8441 10.7083 15.0611 8.63496C17.2931 6.54764 20.4303 5.40625 24.0001 5.40625C27.5664 5.40625 30.7041 6.55704 32.9378 8.65094C35.1571 10.7314 36.5938 13.8447 36.5938 18C36.5938 24.0692 33.3113 30.2674 29.8582 35.0714C28.15 37.4479 26.4392 39.4297 25.1554 40.8169C24.7127 41.2954 24.3216 41.7022 24.0001 42.029C23.6785 41.7022 23.2874 41.2954 22.8447 40.8169C21.5609 39.4297 19.8501 37.4479 18.1419 35.0714C14.6889 30.2674 11.4063 24.0692 11.4063 18ZM23.0443 45.0316C23.0447 45.0319 23.045 45.0322 24.0001 44L23.045 45.0322C23.584 45.5309 24.4161 45.5309 24.9551 45.0322L24.0001 44C24.9551 45.0322 24.9554 45.0319 24.9558 45.0316L24.9568 45.0306L24.9597 45.0279L24.9694 45.0189L25.0036 44.9869C25.0329 44.9594 25.075 44.9195 25.1292 44.8676C25.2376 44.764 25.3941 44.6125 25.5919 44.4163C25.9874 44.0241 26.5483 43.4526 27.2197 42.7272C28.5609 41.2778 30.3501 39.2057 32.1419 36.7129C35.6889 31.7783 39.4063 24.9765 39.4063 18C39.4063 13.1553 37.709 9.26861 34.8613 6.59906C32.028 3.94296 28.1657 2.59375 24.0001 2.59375C19.8378 2.59375 15.975 3.92952 13.14 6.58077C10.2901 9.24601 8.59381 13.1341 8.59381 18C8.59381 24.9765 12.3113 31.7783 15.8582 36.7129C17.65 39.2057 19.4392 41.2778 20.7804 42.7272C21.4518 43.4526 22.0127 44.0241 22.4082 44.4163C22.606 44.6125 22.7625 44.764 22.8709 44.8676C22.9251 44.9195 22.9673 44.9594 22.9966 44.9869L23.0308 45.0189L23.0404 45.0279L23.0433 45.0306L23.0443 45.0316ZM19.4062 18.0001C19.4062 15.463 21.4629 13.4063 23.9999 13.4063C26.537 13.4063 28.5937 15.463 28.5937 18.0001C28.5937 20.5371 26.537 22.5938 23.9999 22.5938C21.4629 22.5938 19.4062 20.5371 19.4062 18.0001ZM23.9999 10.5938C19.9096 10.5938 16.5937 13.9097 16.5937 18.0001C16.5937 22.0904 19.9096 25.4063 23.9999 25.4063C28.0903 25.4063 31.4062 22.0904 31.4062 18.0001C31.4062 13.9097 28.0903 10.5938 23.9999 10.5938Z" fill="#fcdeba"/>
</svg>
